<?xml version="1.0" encoding="UTF-8" standalone="no"?><!DOCTYPE svg PUBLIC "-//W3C//DTD SVG 1.1//EN" "http://www.w3.org/Graphics/SVG/1.1/DTD/svg11.dtd"><svg width="100%" height="100%" viewBox="0 0 26700 9509" version="1.1" xmlns="http://www.w3.org/2000/svg" xmlns:xlink="http://www.w3.org/1999/xlink" xml:space="preserve" xmlns:serif="http://www.serif.com/" style="fill-rule:evenodd;clip-rule:evenodd;stroke-linejoin:round;stroke-miterlimit:2;"><g><g id="Logo"><path d="M9407.75,4639.96l-4907.58,0l-0,-691.354c40.833,0 77.541,0.013 114.25,0c1851.77,-0.775 3703.55,0.988 5555.29,-5.5c234.988,-0.821 458.105,-84.579 662.496,-203.9c507.65,-296.346 788.092,-734.879 777.567,-1327.68c-10.192,-573.904 -294.85,-996.421 -786.379,-1281.48c-261.246,-151.504 -546.584,-206.954 -848,-206.546c-1785.23,2.425 -3570.45,1.188 -5355.67,1.183l-118.287,0l-0,-689.829c28.275,-1.471 58.645,-4.429 89.02,-4.429c1793.91,-0.221 3587.82,-1.437 5381.71,0.65c470.196,0.546 914.866,106.825 1315.92,361.329c504.595,320.209 854.679,762.879 991.612,1347.49c170.467,727.779 -3.283,1375.67 -509.492,1931.1c-370.362,406.375 -830.341,643.487 -1369.15,736.858c-327.012,56.671 -656.433,21.875 -993.325,32.104l0.017,0Z" style="fill:#0b0b0b;fill-rule:nonzero;stroke:#0a0a0a;stroke-width:17.38px;"/><path d="M20589.2,928.583c-26.43,-10.154 -55.567,-19.1 -84.713,-19.116c-1238.32,-0.7 -2476.64,-1.13 -3714.95,0.795c-69.725,0.113 -114.404,-19.92 -161.4,-73.82c-157.629,-180.8 -323.625,-354.3 -485.954,-531.021c-22.392,-24.379 -42.158,-51.171 -71.383,-86.934l6129.04,0c-1348.07,1474.53 -2683.71,2935.48 -4033.34,4411.71c-1344.11,-1471.18 -2679.85,-2933.22 -4027.51,-4408.29c36.95,-3.792 55.1,-7.25 73.25,-7.275c271.967,-0.35 543.963,-2.108 815.871,1.904c37.662,0.559 85.558,20.363 110.742,47.771c387.158,421.363 771.075,845.708 1156.32,1268.83c192.646,211.584 386.342,422.217 579.771,633.088c404.455,440.929 809.188,881.596 1213.23,1322.9c25.087,27.404 45.221,59.341 74.954,98.871c818.717,-896.659 1621.03,-1775.36 2426.05,-2659.42l0.017,0.008Z" style="fill:#0b0b0b;fill-rule:nonzero;stroke:#0a0a0a;stroke-width:17.38px;"/><path d="M15120.1,3720.92c-1055.97,-1159.17 -2108.41,-2313.33 -3175.93,-3484.02c44.175,-3.642 62.579,-6.463 80.983,-6.483c268.975,-0.288 537.967,-1.775 806.892,1.725c34.95,0.454 79.496,17.858 102.8,42.991c253.408,273.3 503.683,549.521 754.396,825.321c513.05,564.387 1025.38,1129.44 1538.94,1693.36c272.388,299.088 547.567,595.634 819.984,894.692c264.571,290.446 527.3,582.567 790.537,874.225c14.879,16.487 27.034,35.437 52.204,68.817c-41.687,3.729 -68.033,8.083 -94.387,8.137c-254.508,0.517 -509.071,2.863 -763.483,-2.2c-42.53,-0.846 -95.884,-24.071 -124.792,-55.079c-263.992,-283.204 -523.675,-570.421 -788.146,-861.483Z" style="fill:#0b0b0b;fill-rule:nonzero;stroke:#0a0a0a;stroke-width:17.38px;"/></g><g id="Text"><g><text x="605.817px" y="7818.12px" style="font-family:'Juhl-Thin';font-size:3298.61px;fill:#0b0b0b;">D</text><text x="2670.75px" y="7818.12px" style="font-family:'Juhl-Thin';font-size:3298.61px;fill:#0b0b0b;">A<tspan x="4531.17px " y="7818.12px ">V</tspan>ID W</text><text x="13061.4px" y="7818.12px" style="font-family:'Juhl-Thin';font-size:3298.61px;fill:#0b0b0b;">ARMUTH</text></g><g><text x="132.846px" y="9290.08px" style="font-family:'Juhl-Regular';font-size:1006.95px;fill:#0b0b0b;stroke:#0a0a0a;stroke-width:17.38px;">D</text><text x="1042.12px" y="9290.08px" style="font-family:'Juhl-Regular';font-size:1006.95px;fill:#0b0b0b;stroke:#0a0a0a;stroke-width:17.38px;">I<tspan x="1548.62px 2457.88px 2964.38px 3716.58px 4660.08px 5459.58px 5937.88px 6862.25px 7680.92px 8613.33px 9499.46px 10318.1px 11235.4px 11692.6px 12170.9px 13000.6px 13934px 14812.1px 15745.5px 16678px 17481.5px 18332.4px 18810.7px 19719.9px 20538.6px 21328px 22080.2px 23023.7px 23739.7px 24590.5px 25409.2px 26326.5px " y="9290.08px 9290.08px 9290.08px 9290.08px 9290.08px 9290.08px 9290.08px 9290.08px 9290.08px 9290.08px 9290.08px 9290.08px 9290.08px 9290.08px 9290.08px 9290.08px 9290.08px 9290.08px 9290.08px 9290.08px 9290.08px 9290.08px 9290.08px 9290.08px 9290.08px 9290.08px 9290.08px 9290.08px 9290.08px 9290.08px 9290.08px 9290.08px ">GITAL DENKEN, ZUKUNFT GESTALTEN.</tspan></text></g></g></g></svg>