<?xml version="1.0" encoding="UTF-8" standalone="no"?><!DOCTYPE svg PUBLIC "-//W3C//DTD SVG 1.1//EN" "http://www.w3.org/Graphics/SVG/1.1/DTD/svg11.dtd"><svg width="100%" height="100%" viewBox="0 0 8000 4500" version="1.1" xmlns="http://www.w3.org/2000/svg" xmlns:xlink="http://www.w3.org/1999/xlink" xml:space="preserve" xmlns:serif="http://www.serif.com/" style="fill-rule:evenodd;clip-rule:evenodd;stroke-linejoin:round;stroke-miterlimit:2;"><g><g id="Logo"><path d="M3053.86,2212.59c-393.545,-0 -785.007,-0 -1177.82,-0l0,-165.925c9.8,0 18.61,0.003 27.42,-0c444.425,-0.186 888.852,0.237 1333.27,-1.32c56.397,-0.197 109.945,-20.299 158.999,-48.936c121.836,-71.123 189.142,-176.371 186.616,-318.644c-2.446,-137.737 -70.764,-239.141 -188.731,-307.554c-62.699,-36.361 -131.18,-49.669 -203.52,-49.571c-428.454,0.582 -856.909,0.285 -1285.36,0.284c-8.916,0 -17.832,0 -28.389,0l-0,-165.559c6.786,-0.353 14.075,-1.063 21.365,-1.063c430.538,-0.053 861.076,-0.345 1291.61,0.156c112.847,0.131 219.568,25.638 315.821,86.719c121.103,76.85 205.123,183.091 237.987,323.398c40.912,174.667 -0.788,330.16 -122.278,463.464c-88.887,97.53 -199.282,154.437 -328.596,176.846c-78.483,13.601 -157.544,5.25 -238.398,7.705Z" style="fill:#0b0b0b;fill-rule:nonzero;stroke:#0a0a0a;stroke-width:4.17px;"/><path d="M5737.4,1321.86c-6.343,-2.437 -13.336,-4.584 -20.331,-4.588c-297.197,-0.168 -594.394,-0.271 -891.589,0.191c-16.734,0.027 -27.457,-4.781 -38.736,-17.717c-37.831,-43.392 -77.67,-85.032 -116.629,-127.445c-5.374,-5.851 -10.118,-12.281 -17.132,-20.864l1470.97,-0c-323.536,353.888 -644.091,704.515 -968.001,1058.81c-322.585,-353.084 -643.165,-703.973 -966.603,-1057.99c8.868,-0.91 13.224,-1.74 17.58,-1.746c65.272,-0.084 130.551,-0.506 195.809,0.457c9.039,0.134 20.534,4.887 26.578,11.465c92.918,101.127 185.058,202.97 277.517,304.52c46.235,50.78 92.722,101.332 139.145,151.941c97.069,105.823 194.205,211.583 291.176,317.495c6.021,6.577 10.853,14.242 17.989,23.729c196.492,-215.198 389.047,-426.085 582.253,-638.26Z" style="fill:#0b0b0b;fill-rule:nonzero;stroke:#0a0a0a;stroke-width:4.17px;"/><path d="M4424.83,1992.02c-253.432,-278.202 -506.018,-555.199 -762.223,-836.165c10.602,-0.874 15.019,-1.551 19.436,-1.556c64.554,-0.069 129.112,-0.426 193.654,0.414c8.388,0.109 19.079,4.286 24.672,10.318c60.818,65.592 120.884,131.885 181.055,198.077c123.132,135.453 246.09,271.065 369.346,406.406c65.373,71.781 131.416,142.952 196.796,214.726c63.497,69.707 126.552,139.816 189.729,209.814c3.571,3.957 6.488,8.505 12.529,16.516c-10.005,0.895 -16.328,1.94 -22.653,1.953c-61.082,0.124 -122.177,0.687 -183.236,-0.528c-10.207,-0.203 -23.012,-5.777 -29.95,-13.219c-63.358,-67.969 -125.682,-136.901 -189.155,-206.756Z" style="fill:#0b0b0b;fill-rule:nonzero;stroke:#0a0a0a;stroke-width:4.17px;"/></g><g id="Text"><g transform="matrix(791.667,0,0,791.667,7058.6,2975.35)"></g><text x="941.396px" y="2975.35px" style="font-family:'Juhl-Thin';font-size:791.667px;fill:#0b0b0b;">D<tspan x="1436.98px 1883.48px " y="2975.35px 2975.35px ">AV</tspan>ID W<tspan x="3930.73px " y="2975.35px ">A</tspan>RMUTH</text><g transform="matrix(241.667,0,0,241.667,7166.8,3328.62)"></g><text x="827.883px" y="3328.62px" style="font-family:'Juhl-Regular';font-size:241.667px;fill:#0b0b0b;stroke:#0a0a0a;stroke-width:4.17px;">D<tspan x="1046.11px 1167.67px 1385.89px 1507.45px 1687.98px 1914.42px 2106.3px 2221.09px 2442.94px 2639.42px 2863.2px 3075.87px 3272.34px 3492.5px 3602.22px 3717.01px 3916.14px 4140.17px 4350.9px 4574.93px 4798.71px 4991.56px 5195.77px 5310.56px 5528.78px 5725.26px 5914.73px 6095.25px 6321.69px 6493.52px 6697.73px 6894.2px 7114.36px " y="3328.62px 3328.62px 3328.62px 3328.62px 3328.62px 3328.62px 3328.62px 3328.62px 3328.62px 3328.62px 3328.62px 3328.62px 3328.62px 3328.62px 3328.62px 3328.62px 3328.62px 3328.62px 3328.62px 3328.62px 3328.62px 3328.62px 3328.62px 3328.62px 3328.62px 3328.62px 3328.62px 3328.62px 3328.62px 3328.62px 3328.62px 3328.62px 3328.62px ">IGITAL DENKEN, ZUKUNFT GESTALTEN.</tspan></text></g></g></svg>