<?xml version="1.0" encoding="UTF-8" standalone="no"?><!DOCTYPE svg PUBLIC "-//W3C//DTD SVG 1.1//EN" "http://www.w3.org/Graphics/SVG/1.1/DTD/svg11.dtd"><svg width="100%" height="100%" viewBox="0 0 2134 2134" version="1.1" xmlns="http://www.w3.org/2000/svg" xmlns:xlink="http://www.w3.org/1999/xlink" xml:space="preserve" xmlns:serif="http://www.serif.com/" style="fill-rule:evenodd;clip-rule:evenodd;stroke-linejoin:round;stroke-miterlimit:2;"><g><path d="M1048.79,1293.73c-343.472,-0.001 -685.126,-0.001 -1027.96,-0.001l0,-142.013c8.553,0 16.242,0.003 23.931,0c387.878,-0.159 775.758,0.203 1163.63,-1.13c49.221,-0.169 95.955,-17.373 138.768,-41.883c106.334,-60.874 165.077,-150.954 162.872,-272.724c-2.135,-117.887 -61.761,-204.678 -164.717,-263.231c-54.722,-31.121 -114.49,-42.512 -177.626,-42.428c-373.939,0.498 -747.879,0.245 -1121.82,0.244c-7.781,-0.001 -15.563,-0 -24.777,-0l0,-141.7c5.923,-0.302 12.285,-0.91 18.647,-0.911c375.758,-0.044 751.516,-0.294 1127.27,0.134c98.489,0.112 191.631,21.944 275.637,74.222c105.695,65.775 179.024,156.706 207.706,276.792c35.707,149.496 -0.687,282.58 -106.719,396.673c-77.578,83.475 -173.926,132.181 -286.787,151.361c-68.497,11.641 -137.499,4.494 -208.066,6.595Z" style="fill:#eaeaea;fill-rule:nonzero;"/><g><path d="M1784,986.958c-5.39,-2.074 -11.333,-3.903 -17.278,-3.906c-252.558,-0.143 -505.117,-0.231 -757.675,0.163c-14.22,0.022 -23.333,-4.071 -32.917,-15.085c-32.15,-36.945 -66.005,-72.399 -99.112,-108.51c-4.567,-4.982 -8.598,-10.456 -14.559,-17.764l1250.04,-0c-274.942,301.309 -547.35,599.841 -822.61,901.499c-274.134,-300.625 -546.564,-599.38 -821.422,-900.8c7.536,-0.774 11.237,-1.481 14.939,-1.486c55.469,-0.071 110.943,-0.43 166.399,0.389c7.682,0.114 17.45,4.161 22.586,9.762c78.963,86.102 157.263,172.814 235.835,259.276c39.291,43.236 78.796,86.276 118.247,129.366c82.489,90.1 165.035,180.148 247.441,270.324c5.117,5.599 9.223,12.126 15.288,20.203c166.979,-183.225 330.613,-362.779 494.8,-543.431Z" style="fill:#9e9e9e;fill-rule:nonzero;"/><path d="M668.573,1557.55c-215.368,-236.868 -430.016,-472.71 -647.74,-711.932c9.01,-0.744 12.763,-1.321 16.517,-1.325c54.858,-0.058 109.719,-0.362 164.568,0.353c7.128,0.093 16.213,3.649 20.966,8.785c51.684,55.847 102.727,112.29 153.861,168.647c104.638,115.329 209.128,230.793 313.872,346.025c55.553,61.117 111.677,121.713 167.238,182.823c53.959,59.35 107.543,119.043 161.231,178.641c3.036,3.369 5.514,7.241 10.648,14.062c-8.503,0.763 -13.876,1.652 -19.251,1.663c-51.908,0.105 -103.826,0.585 -155.714,-0.449c-8.674,-0.173 -19.556,-4.919 -25.451,-11.255c-53.842,-57.871 -106.806,-116.561 -160.745,-176.038Z" style="fill:#9e9e9e;fill-rule:nonzero;"/></g></g></svg>